<?xml version="1.0" encoding="UTF-8" standalone="no"?>
<!-- Created with Inkscape (http://www.inkscape.org/) -->

<svg
   xmlns:dc="http://purl.org/dc/elements/1.1/"
   xmlns:cc="http://creativecommons.org/ns#"
   xmlns:rdf="http://www.w3.org/1999/02/22-rdf-syntax-ns#"
   xmlns:svg="http://www.w3.org/2000/svg"
   xmlns="http://www.w3.org/2000/svg"
   xmlns:sodipodi="http://sodipodi.sourceforge.net/DTD/sodipodi-0.dtd"
   xmlns:inkscape="http://www.inkscape.org/namespaces/inkscape"
   width="708.66138"
   height="354.33069"
   id="svg2"
   version="1.1"
   inkscape:version="0.48.5 r10040"
   sodipodi:docname="PHPCat.svg">
  <defs
     id="defs4" />
  <sodipodi:namedview
     id="base"
     pagecolor="#ffffff"
     bordercolor="#666666"
     borderopacity="1.0"
     inkscape:pageopacity="0.0"
     inkscape:pageshadow="2"
     inkscape:zoom="1.5409333"
     inkscape:cx="272.88654"
     inkscape:cy="177.16534"
     inkscape:document-units="px"
     inkscape:current-layer="layer1"
     showgrid="false"
     units="cm"
     inkscape:window-width="1280"
     inkscape:window-height="752"
     inkscape:window-x="0"
     inkscape:window-y="0"
     inkscape:window-maximized="1"
     showguides="true"
     inkscape:guide-bbox="true">
    <sodipodi:guide
       orientation="0,1"
       position="406.52799,100.66653"
       id="guide3004" />
  </sodipodi:namedview>
  <metadata
     id="metadata7">
    <rdf:RDF>
      <cc:Work
         rdf:about="">
        <dc:format>image/svg+xml</dc:format>
        <dc:type
           rdf:resource="http://purl.org/dc/dcmitype/StillImage" />
        <dc:title />
      </cc:Work>
    </rdf:RDF>
  </metadata>
  <g
     inkscape:groupmode="layer"
     id="layer2"
     inkscape:label="Fons"
     sodipodi:insensitive="true">
    <rect
       style="fill:#5272ab;fill-opacity:1;stroke:none"
       id="rect3068"
       width="708.66144"
       height="354.33072"
       x="-3.0517578e-05"
       y="-1.5258789e-05" />
  </g>
  <g
     inkscape:label="Text"
     inkscape:groupmode="layer"
     id="layer1"
     transform="translate(0,-698.03203)">
    <g
       id="g3021"
       transform="translate(-1.0000076,0)">
      <path
         sodipodi:nodetypes="ccssssccssssssssc"
         d="m 486.35525,943.44596 0,-20.0806 -41.1779,0 c -8.64228,0 -12.45506,-2.54183 -12.45506,-10.67575 l 0,-74.98448 c 0,-8.13387 3.81278,-10.67574 12.45506,-10.67574 l 41.1779,0 0,-21.35152 c -10.42157,-5.84622 -23.1308,-7.11717 -33.044,-7.11717 l -11.69249,0 c -4.08556,0 -7.91845,0.20717 -11.48873,0.64574 -10.68442,1.31243 -19.01691,4.69714 -24.73019,10.80328 -5.91826,6.32523 -9.02595,15.5707 -9.02595,28.45797 l 0,73.45937 c 0,29.48542 16.26784,39.90699 45.24487,39.90699 l 21.23157,0 c 10.16739,0 13.59173,-2.28767 23.50492,-8.38809"
         id="path3134"
         inkscape:connector-curvature="0"
         style="font-size:72px;font-style:normal;font-variant:normal;font-weight:bold;font-stretch:normal;text-align:start;line-height:125%;letter-spacing:0px;word-spacing:0px;writing-mode:lr-tb;text-anchor:start;fill:#333636;fill-opacity:1;stroke:none;font-family:MorganSansCond Caps;-inkscape-font-specification:MorganSansCond Caps Bold" />
      <path
         sodipodi:nodetypes="cccccccccccccccc"
         d="m 583.0609,951.69619 -35.35459,-153.05411 -51.85367,0 -35.08731,153.05411 32.02727,0 8.90628,-39.76913 36.60259,0 8.91938,39.76913 35.84005,0 m -49.58894,-67.22107 -25.92683,0 9.65903,-53.88715 1.77927,-10.67575 1.7793,0 1.77929,10.67575 10.92994,53.88715"
         id="path3136"
         inkscape:connector-curvature="0"
         style="font-size:72px;font-style:normal;font-variant:normal;font-weight:bold;font-stretch:normal;text-align:start;line-height:125%;letter-spacing:0px;word-spacing:0px;writing-mode:lr-tb;text-anchor:start;fill:#333636;fill-opacity:1;stroke:none;font-family:MorganSansCond Caps;-inkscape-font-specification:MorganSansCond Caps Bold" />
      <path
         sodipodi:nodetypes="ccccccccc"
         d="m 650.13657,827.79193 0,-29.14985 -90.9981,0 0,29.14985 27.19775,0 0,123.90426 36.6026,0 0,-123.90426 27.19775,0"
         id="path3138"
         inkscape:connector-curvature="0"
         style="font-size:72px;font-style:normal;font-variant:normal;font-weight:bold;font-stretch:normal;text-align:start;line-height:125%;letter-spacing:0px;word-spacing:0px;writing-mode:lr-tb;text-anchor:start;fill:#333636;fill-opacity:1;stroke:none;font-family:MorganSansCond Caps;-inkscape-font-specification:MorganSansCond Caps Bold" />
    </g>
    <g
       id="g3128"
       transform="matrix(1.6950329,0,0,1.6950329,711.21623,529.60959)">
      <path
         d="m -323.76557,197.58729 0,-15.17642 c 0,-16.70937 -8.12477,-23.30117 -26.06052,-23.30117 l -34.64516,0 0,89.98544 21.7682,0 0,-28.81987 14.71653,0 c 17.62915,0 24.22095,-6.89839 24.22095,-22.68798 m -21.92149,-0.1533 c 0,5.3654 -0.91979,6.74508 -5.5187,6.74508 l -11.49729,0 0,-28.66657 9.19783,0 c 5.51869,0 7.81816,0.76649 7.81816,5.2121 l 0,16.70939"
         style="font-size:153.29716492px;font-style:normal;font-variant:normal;font-weight:bold;font-stretch:normal;text-align:start;line-height:125%;letter-spacing:0px;word-spacing:0px;writing-mode:lr-tb;text-anchor:start;fill:#f6f5f3;fill-opacity:1;stroke:none;font-family:MorganSansCond Caps;-inkscape-font-specification:MorganSansCond Caps Bold"
         id="path3100"
         inkscape:connector-curvature="0" />
      <path
         sodipodi:nodetypes="ccccccccccccc"
         d="m -251.09824,248.65558 0,-89.93743 -21.9215,0 0,35.97683 -16.69511,0 0,-35.97683 -21.9215,0 0,89.93743 21.9215,0 0,-37.09792 16.69511,0 0,37.09792 21.9215,0"
         style="font-size:153.29716492px;font-style:normal;font-variant:normal;font-weight:bold;font-stretch:normal;text-align:start;line-height:125%;letter-spacing:0px;word-spacing:0px;writing-mode:lr-tb;text-anchor:start;fill:#f6f5f3;fill-opacity:1;stroke:none;font-family:MorganSansCond Caps;-inkscape-font-specification:MorganSansCond Caps Bold"
         id="path3102"
         inkscape:connector-curvature="0" />
      <path
         d="m -178.26334,197.58729 0,-15.17642 c 0,-16.70937 -8.12476,-23.30117 -26.06051,-23.30117 l -34.64516,0 0,89.98544 21.76819,0 0,-28.81987 14.71653,0 c 17.62916,0 24.22095,-6.89839 24.22095,-22.68798 m -21.92149,-0.1533 c 0,5.3654 -0.91979,6.74508 -5.5187,6.74508 l -11.49729,0 0,-28.66657 9.19783,0 c 5.5187,0 7.81816,0.76649 7.81816,5.2121 l 0,16.70939"
         style="font-size:153.29716492px;font-style:normal;font-variant:normal;font-weight:bold;font-stretch:normal;text-align:start;line-height:125%;letter-spacing:0px;word-spacing:0px;writing-mode:lr-tb;text-anchor:start;fill:#f6f5f3;fill-opacity:1;stroke:none;font-family:MorganSansCond Caps;-inkscape-font-specification:MorganSansCond Caps Bold"
         id="path3104"
         inkscape:connector-curvature="0" />
    </g>
  </g>
  <g
     inkscape:groupmode="layer"
     id="layer3"
     inkscape:label="Motius" />
</svg>
