<?xml version="1.0" encoding="UTF-8" standalone="no"?>
<!-- Created with Inkscape (http://www.inkscape.org/) -->

<svg
   xmlns:dc="http://purl.org/dc/elements/1.1/"
   xmlns:cc="http://creativecommons.org/ns#"
   xmlns:rdf="http://www.w3.org/1999/02/22-rdf-syntax-ns#"
   xmlns:svg="http://www.w3.org/2000/svg"
   xmlns="http://www.w3.org/2000/svg"
   xmlns:sodipodi="http://sodipodi.sourceforge.net/DTD/sodipodi-0.dtd"
   xmlns:inkscape="http://www.inkscape.org/namespaces/inkscape"
   width="708.66138"
   height="354.33069"
   id="svg2"
   version="1.1"
   inkscape:version="0.91 r13725"
   sodipodi:docname="PHPCat.svg"
   inkscape:export-filename="/Users/corretge/Google Drive/Projectes/php.cat/disseny/logo/PHPCat.png"
   inkscape:export-xdpi="90"
   inkscape:export-ydpi="90">
  <defs
     id="defs4" />
  <sodipodi:namedview
     id="base"
     pagecolor="#ffffff"
     bordercolor="#666666"
     borderopacity="1.0"
     inkscape:pageopacity="0.0"
     inkscape:pageshadow="2"
     inkscape:zoom="1.2050889"
     inkscape:cx="342.71329"
     inkscape:cy="174.6759"
     inkscape:document-units="px"
     inkscape:current-layer="layer1"
     showgrid="false"
     units="cm"
     inkscape:window-width="1280"
     inkscape:window-height="751"
     inkscape:window-x="0"
     inkscape:window-y="0"
     inkscape:window-maximized="1"
     showguides="true"
     inkscape:guide-bbox="true">
    <sodipodi:guide
       orientation="0,1"
       position="406.52799,100.66653"
       id="guide3004" />
  </sodipodi:namedview>
  <metadata
     id="metadata7">
    <rdf:RDF>
      <cc:Work
         rdf:about="">
        <dc:format>image/svg+xml</dc:format>
        <dc:type
           rdf:resource="http://purl.org/dc/dcmitype/StillImage" />
        <dc:title />
      </cc:Work>
    </rdf:RDF>
  </metadata>
  <g
     inkscape:groupmode="layer"
     id="layer2"
     inkscape:label="Fons"
     sodipodi:insensitive="true">
    <rect
       style="fill:#5272ab;fill-opacity:1;stroke:none"
       id="rect3068"
       width="708.66144"
       height="354.33072"
       x="-3.0517578e-05"
       y="-1.5258789e-05" />
  </g>
  <g
     inkscape:label="Text"
     inkscape:groupmode="layer"
     id="layer1"
     transform="translate(0,-698.03203)">
    <g
       id="g3352"
       transform="translate(3.0000013,-7.6171887e-7)">
      <g
         transform="translate(-1.0000076,0)"
         id="g3021">
        <path
           style="font-style:normal;font-variant:normal;font-weight:bold;font-stretch:normal;font-size:72px;line-height:125%;font-family:'MorganSansCond Caps';-inkscape-font-specification:'MorganSansCond Caps Bold';text-align:start;letter-spacing:0px;word-spacing:0px;writing-mode:lr-tb;text-anchor:start;fill:#333636;fill-opacity:1;stroke:none"
           inkscape:connector-curvature="0"
           id="path3134"
           d="m 486.35525,943.44596 0,-20.0806 -41.1779,0 c -8.64228,0 -12.45506,-2.54183 -12.45506,-10.67575 l 0,-74.98448 c 0,-8.13387 3.81278,-10.67574 12.45506,-10.67574 l 41.1779,0 0,-21.35152 c -10.42157,-5.84622 -23.1308,-7.11717 -33.044,-7.11717 l -11.69249,0 c -4.08556,0 -7.91845,0.20717 -11.48873,0.64574 -10.68442,1.31243 -19.01691,4.69714 -24.73019,10.80328 -5.91826,6.32523 -9.02595,15.5707 -9.02595,28.45797 l 0,73.45937 c 0,29.48542 16.26784,39.90699 45.24487,39.90699 l 21.23157,0 c 10.16739,0 13.59173,-2.28767 23.50492,-8.38809"
           sodipodi:nodetypes="ccssssccssssssssc" />
        <path
           style="font-style:normal;font-variant:normal;font-weight:bold;font-stretch:normal;font-size:72px;line-height:125%;font-family:'MorganSansCond Caps';-inkscape-font-specification:'MorganSansCond Caps Bold';text-align:start;letter-spacing:0px;word-spacing:0px;writing-mode:lr-tb;text-anchor:start;fill:#333636;fill-opacity:1;stroke:none"
           inkscape:connector-curvature="0"
           id="path3136"
           d="m 583.0609,951.69619 -35.35459,-153.05411 -51.85367,0 -35.08731,153.05411 32.02727,0 8.90628,-39.76913 36.60259,0 8.91938,39.76913 35.84005,0 m -49.58894,-67.22107 -25.92683,0 9.65903,-53.88715 1.77927,-10.67575 1.7793,0 1.77929,10.67575 10.92994,53.88715"
           sodipodi:nodetypes="cccccccccccccccc" />
        <path
           style="font-style:normal;font-variant:normal;font-weight:bold;font-stretch:normal;font-size:72px;line-height:125%;font-family:'MorganSansCond Caps';-inkscape-font-specification:'MorganSansCond Caps Bold';text-align:start;letter-spacing:0px;word-spacing:0px;writing-mode:lr-tb;text-anchor:start;fill:#333636;fill-opacity:1;stroke:none"
           inkscape:connector-curvature="0"
           id="path3138"
           d="m 650.13657,827.79193 0,-29.14985 -90.9981,0 0,29.14985 27.19775,0 0,123.90426 36.6026,0 0,-123.90426 27.19775,0"
           sodipodi:nodetypes="ccccccccc" />
      </g>
      <path
         d="m 156.42294,864.52655 0,-25.72453 c 0,-28.32294 -13.77176,-39.49625 -44.17344,-39.49625 l -58.724688,0 0,152.52828 36.897815,0 0,-48.85063 24.945003,0 c 29.88199,0 41.05531,-11.693 41.05531,-38.45687 m -37.15765,-0.25985 c 0,9.09453 -1.55907,11.43313 -9.35438,11.43313 l -19.488283,0 0,-48.59078 15.590623,0 c 9.35436,0 13.25204,1.29923 13.25204,8.83468 l 0,28.32297"
         style="font-style:normal;font-variant:normal;font-weight:bold;font-stretch:normal;font-size:153.29716492px;line-height:125%;font-family:'MorganSansCond Caps';-inkscape-font-specification:'MorganSansCond Caps Bold';text-align:start;letter-spacing:0px;word-spacing:0px;writing-mode:lr-tb;text-anchor:start;fill:#f6f5f3;fill-opacity:1;stroke:none"
         id="path3100"
         inkscape:connector-curvature="0" />
      <path
         sodipodi:nodetypes="ccccccccccccc"
         d="m 279.59645,951.08898 0,-152.4469 -37.15766,0 0,60.98191 -28.29876,0 0,-60.98191 -37.15767,0 0,152.4469 37.15767,0 0,-62.8822 28.29876,0 0,62.8822 37.15766,0"
         style="font-style:normal;font-variant:normal;font-weight:bold;font-stretch:normal;font-size:153.29716492px;line-height:125%;font-family:'MorganSansCond Caps';-inkscape-font-specification:'MorganSansCond Caps Bold';text-align:start;letter-spacing:0px;word-spacing:0px;writing-mode:lr-tb;text-anchor:start;fill:#f6f5f3;fill-opacity:1;stroke:none"
         id="path3102"
         inkscape:connector-curvature="0" />
      <path
         d="m 409.054,864.52655 0,-25.72453 c 0,-28.32294 -13.77173,-39.49625 -44.17342,-39.49625 l -58.72468,0 0,152.52828 36.89779,0 0,-48.85063 24.94501,0 c 29.882,0 41.0553,-11.693 41.0553,-38.45687 m -37.15764,-0.25985 c 0,9.09453 -1.55908,11.43313 -9.35438,11.43313 l -19.48829,0 0,-48.59078 15.59063,0 c 9.35438,0 13.25204,1.29923 13.25204,8.83468 l 0,28.32297"
         style="font-style:normal;font-variant:normal;font-weight:bold;font-stretch:normal;font-size:153.29716492px;line-height:125%;font-family:'MorganSansCond Caps';-inkscape-font-specification:'MorganSansCond Caps Bold';text-align:start;letter-spacing:0px;word-spacing:0px;writing-mode:lr-tb;text-anchor:start;fill:#f6f5f3;fill-opacity:1;stroke:none"
         id="path3104"
         inkscape:connector-curvature="0" />
    </g>
  </g>
  <g
     inkscape:groupmode="layer"
     id="layer3"
     inkscape:label="Motius" />
</svg>
